<svg xmlns="http://www.w3.org/2000/svg" viewBox="0 0 32 32" width="32" height="32">
  <rect width="32" height="32" rx="8" fill="#14213D" />
  <g fill="none" stroke="#FFFFFF" stroke-width="2.1" stroke-linecap="round" stroke-linejoin="round">
    <path d="M13 13 10.5 7.5 8 13c.87.65 1.92 1 3 1s2.13-.35 3-1Z" />
    <path d="M24 13l-2.5-5.5L19 13c.87.65 1.92 1 3 1s2.13-.35 3-1Z" />
    <path d="M10 19h12" />
    <path d="M16 6v18" />
    <path d="M5 9h2c1.8 0 4.4-.9 6-1.8C14.6 8.1 17.2 9 19 9h2" />
  </g>
  <circle cx="25" cy="7" r="3" fill="#22D3EE" />
</svg>
